<svg width="20" height="20" viewBox="0 0 20 20" fill="none" xmlns="http://www.w3.org/2000/svg">
<path d="M10 15.4167C10.3069 15.4167 10.5644 15.3127 10.7724 15.1047C10.9804 14.8967 11.0841 14.6396 11.0833 14.3333V11.0833H14.3333C14.6403 11.0833 14.8978 10.9793 15.1058 10.7713C15.3138 10.5633 15.4174 10.3062 15.4167 10C15.4167 9.69306 15.3127 9.43559 15.1047 9.22759C14.8967 9.01959 14.6396 8.91595 14.3333 8.91667H11.0833V5.66667C11.0833 5.35972 10.9793 5.10225 10.7713 4.89425C10.5633 4.68625 10.3062 4.58261 10 4.58334C9.69306 4.58334 9.43559 4.68734 9.22759 4.89534C9.01959 5.10334 8.91595 5.36045 8.91667 5.66667V8.91667H5.66667C5.35972 8.91667 5.10225 9.02067 4.89425 9.22867C4.68625 9.43667 4.58261 9.69378 4.58334 10C4.58334 10.3069 4.68734 10.5644 4.89534 10.7724C5.10334 10.9804 5.36045 11.0841 5.66667 11.0833H8.91667V14.3333C8.91667 14.6403 9.02067 14.8978 9.22867 15.1058C9.43667 15.3138 9.69378 15.4174 10 15.4167ZM2.41667 19.75C1.82084 19.75 1.31059 19.5377 0.885918 19.113C0.461252 18.6883 0.24928 18.1784 0.250002 17.5833V2.41667C0.250002 1.82084 0.462335 1.31059 0.887002 0.885918C1.31167 0.461252 1.82156 0.24928 2.41667 0.250002H17.5833C18.1792 0.250002 18.6894 0.462335 19.1141 0.887002C19.5388 1.31167 19.7507 1.82156 19.75 2.41667V17.5833C19.75 18.1792 19.5377 18.6894 19.113 19.1141C18.6883 19.5388 18.1784 19.7507 17.5833 19.75H2.41667Z" fill="black"/>
</svg>
