<svg width="22" height="22" viewBox="0 0 22 22" fill="none" xmlns="http://www.w3.org/2000/svg">
<path d="M20.3329 9.66667H5.43957L11.9462 3.16C12.4662 2.64 12.4662 1.78666 11.9462 1.26666C11.8229 1.14306 11.6764 1.045 11.5151 0.978088C11.3538 0.911179 11.1809 0.87674 11.0062 0.87674C10.8316 0.87674 10.6587 0.911179 10.4974 0.978088C10.3361 1.045 10.1896 1.14306 10.0662 1.26666L1.27957 10.0533C1.15597 10.1767 1.05791 10.3232 0.990997 10.4845C0.924089 10.6458 0.889648 10.8187 0.889648 10.9933C0.889648 11.168 0.924089 11.3409 0.990997 11.5022C1.05791 11.6635 1.15597 11.81 1.27957 11.9333L10.0662 20.72C10.1897 20.8434 10.3362 20.9414 10.4975 21.0082C10.6588 21.075 10.8317 21.1094 11.0062 21.1094C11.1808 21.1094 11.3537 21.075 11.515 21.0082C11.6763 20.9414 11.8228 20.8434 11.9462 20.72C12.0697 20.5966 12.1676 20.45 12.2344 20.2887C12.3012 20.1274 12.3356 19.9546 12.3356 19.78C12.3356 19.6054 12.3012 19.4326 12.2344 19.2713C12.1676 19.11 12.0697 18.9634 11.9462 18.84L5.43957 12.3333H20.3329C21.0662 12.3333 21.6662 11.7333 21.6662 11C21.6662 10.2667 21.0662 9.66667 20.3329 9.66667Z" fill="black"/>
</svg>
