<svg width="20" height="11" viewBox="0 0 20 11" fill="none" xmlns="http://www.w3.org/2000/svg">
<path d="M0.990194 0.379997C0.500195 0.869997 0.500194 1.66 0.990194 2.15L9.3002 10.46C9.39271 10.5527 9.5026 10.6262 9.62357 10.6764C9.74454 10.7266 9.87423 10.7524 10.0052 10.7524C10.1362 10.7524 10.2658 10.7266 10.3868 10.6764C10.5078 10.6262 10.6177 10.5527 10.7102 10.46L19.0202 2.15C19.5102 1.66 19.5102 0.869998 19.0202 0.379998C18.5302 -0.110002 17.7402 -0.110002 17.2502 0.379998L10.0002 7.62L2.75019 0.369997C2.2702 -0.110003 1.47019 -0.110003 0.990194 0.379997Z" fill="black"/>
</svg>
