<svg width="40" height="28" viewBox="0 0 40 28" fill="none" xmlns="http://www.w3.org/2000/svg">
<path d="M18.25 28H10.375C7.72083 28 5.45283 27.0812 3.571 25.2437C1.68917 23.4062 0.748834 21.1604 0.750001 18.5063C0.750001 16.2312 1.43542 14.2042 2.80625 12.425C4.17708 10.6458 5.97083 9.50833 8.1875 9.0125C8.91667 6.32917 10.375 4.15625 12.5625 2.49375C14.75 0.83125 17.2292 0 20 0C23.4125 0 26.3076 1.18883 28.6853 3.5665C31.0629 5.94417 32.2512 8.83867 32.25 12.25C34.2625 12.4833 35.9326 13.3513 37.2603 14.854C38.5879 16.3567 39.2512 18.1137 39.25 20.125C39.25 22.3125 38.4841 24.1722 36.9523 25.704C35.4204 27.2358 33.5613 28.0012 31.375 28H21.75V15.4875L24.55 18.2L27 15.75L20 8.75L13 15.75L15.45 18.2L18.25 15.4875V28Z" fill="#6C6C6C"/>
</svg>
