<svg width="32" height="32" viewBox="0 0 32 32" fill="none" xmlns="http://www.w3.org/2000/svg">
<path d="M15.9999 5.60062L1.40527 11.0737L15.9999 18.3711L22.9511 14.8954L16.4301 12.9017C16.2958 12.9661 16.1488 12.9997 15.9999 13C15.7347 13 15.4803 12.8946 15.2928 12.7071C15.1053 12.5196 14.9999 12.2652 14.9999 12C14.9999 11.7348 15.1053 11.4804 15.2928 11.2929C15.4803 11.1054 15.7347 11 15.9999 11L15.8345 11.5376L16.9931 11.8941C16.9933 11.8952 16.9934 11.8964 16.9936 11.8976L18.7032 12.4204L28.4374 15.4153V16.1744C28.3028 16.266 28.1925 16.3891 28.1163 16.533C28.04 16.6769 28.0001 16.8372 27.9999 17.0001C28.0001 17.1666 28.0419 17.3305 28.1215 17.4768C28.2011 17.6232 28.316 17.7473 28.4557 17.8379C28.0005 19.5582 27.9999 23.4614 27.9999 25C28.9999 25.6497 28.9999 25.6734 29.9999 25C29.9999 23.4616 29.9994 19.5592 29.5443 17.8385C29.6841 17.7478 29.799 17.6235 29.8786 17.4771C29.9581 17.3307 29.9998 17.1667 29.9999 17C29.9999 16.837 29.96 16.6764 29.8838 16.5324C29.8075 16.3883 29.6972 16.265 29.5624 16.1733V14.5846L25.8546 13.4437L30.5945 11.0737L15.9999 5.60062ZM7.47634 15.5625L6.65615 20.4837C8.29209 20.6977 10.249 21.6486 12.048 22.7729C13.0711 23.4124 14.0295 24.1144 14.8078 24.7954C15.2835 25.2117 15.6813 25.6111 15.9999 26.004C16.3185 25.611 16.7163 25.2117 17.192 24.7954C17.9703 24.1144 18.9286 23.4124 19.9518 22.7729C21.7508 21.6486 23.7077 20.6977 25.3436 20.4837L24.5233 15.5625H24.1327L15.9999 19.6289L7.86696 15.5625H7.47634Z" fill="black"/>
</svg>
