<svg width="48" height="48" viewBox="0 0 48 48" fill="none" xmlns="http://www.w3.org/2000/svg">
<path fill-rule="evenodd" clip-rule="evenodd" d="M22.596 4.38999C23.3852 4.0947 24.2476 4.0562 25.06 4.27999L25.404 4.38999L39.404 9.63999C40.1139 9.90617 40.7335 10.3686 41.1906 10.9734C41.6477 11.5782 41.9236 12.3004 41.986 13.056L42 13.386V24.112C41.9999 27.3528 41.1249 30.5335 39.4672 33.3184C37.8095 36.1032 35.4308 38.3888 32.582 39.934L32.05 40.212L25.342 43.566C24.9726 43.7504 24.5692 43.8566 24.1569 43.8779C23.7447 43.8993 23.3324 43.8353 22.946 43.69L22.658 43.566L15.95 40.212C13.0512 38.7626 10.5976 36.5574 8.84801 33.8292C7.09847 31.1011 6.11796 27.9511 6.01 24.712L6 24.112V13.386C6.00001 12.6282 6.21525 11.8861 6.62067 11.2459C7.02608 10.6058 7.60499 10.0939 8.29 9.76999L8.596 9.63999L22.596 4.38999ZM30.866 17.258L21.67 26.454L18.134 22.918C17.7587 22.543 17.2498 22.3324 16.7193 22.3326C16.1888 22.3328 15.68 22.5437 15.305 22.919C14.93 23.2943 14.7194 23.8032 14.7196 24.3337C14.7198 24.8642 14.9307 25.373 15.306 25.748L20.114 30.556C20.3183 30.7604 20.5609 30.9225 20.8279 31.0332C21.0948 31.1438 21.381 31.2007 21.67 31.2007C21.959 31.2007 22.2452 31.1438 22.5121 31.0332C22.7791 30.9225 23.0217 30.7604 23.226 30.556L33.694 20.086C33.885 19.9015 34.0374 19.6808 34.1422 19.4368C34.247 19.1928 34.3022 18.9304 34.3045 18.6648C34.3068 18.3992 34.2562 18.1359 34.1556 17.8901C34.0551 17.6443 33.9066 17.421 33.7188 17.2332C33.531 17.0454 33.3077 16.8969 33.0619 16.7963C32.8161 16.6958 32.5528 16.6452 32.2872 16.6475C32.0216 16.6498 31.7592 16.705 31.5152 16.8098C31.2712 16.9146 31.0505 17.067 30.866 17.258Z" fill="#3D0EA9"/>
</svg>
