<svg width="16" height="16" viewBox="0 0 16 16" fill="none" xmlns="http://www.w3.org/2000/svg">
<path d="M7.99325 1.33325C4.31325 1.33325 1.33325 4.31992 1.33325 7.99992C1.33325 11.6799 4.31325 14.6666 7.99325 14.6666C11.6799 14.6666 14.6666 11.6799 14.6666 7.99992C14.6666 4.31992 11.6799 1.33325 7.99325 1.33325ZM10.6666 10.6666C10.6049 10.7284 10.5316 10.7774 10.451 10.8109C10.3704 10.8443 10.2839 10.8615 10.1966 10.8615C10.1093 10.8615 10.0228 10.8443 9.94217 10.8109C9.86152 10.7774 9.78826 10.7284 9.72658 10.6666L7.53325 8.47325C7.47026 8.41151 7.42015 8.33788 7.38581 8.25663C7.35148 8.17538 7.33362 8.08812 7.33325 7.99992V5.33325C7.33325 4.96659 7.63325 4.66659 7.99992 4.66659C8.36658 4.66659 8.66658 4.96659 8.66658 5.33325V7.72659L10.6666 9.72658C10.9266 9.98658 10.9266 10.4066 10.6666 10.6666Z" fill="#181818"/>
</svg>
