<svg width="223" height="233" viewBox="0 0 223 233" fill="none" xmlns="http://www.w3.org/2000/svg">
<mask id="mask0_161_155" style="mask-type:alpha" maskUnits="userSpaceOnUse" x="0" y="0" width="223" height="233">
<rect width="222.3" height="232.592" transform="matrix(-1 0 0 1 222.3 0.408325)" fill="#D9D9D9"/>
</mask>
<g mask="url(#mask0_161_155)">
<path d="M131.121 427.293L130.979 414.743L149.19 416.028L149.716 426.401C143.914 427.602 137.314 427.909 131.121 427.293Z" fill="#F9B384"/>
<path d="M111.41 444.319C116.348 436.245 123.097 433.553 131.158 432.533L131.121 427.296C137.31 427.912 143.914 427.606 149.716 426.404L150.623 444.322H111.41V444.319Z" fill="#102048"/>
<path d="M221.519 428.518L223.185 432.317C231.245 433.337 238.459 437.672 245.08 444.319H206.868L202.802 428.565C209.326 429.669 215.549 429.591 221.519 428.518Z" fill="#102048"/>
<path d="M202.802 428.565L199.569 416.032L215.67 415.173L221.519 428.518C215.549 429.591 209.326 429.669 202.802 428.565Z" fill="#F9B384"/>
<path d="M122.716 232.362C113.129 294.654 115.846 356.664 129.155 419.242H152.053C149.318 378.624 147.232 330.342 153.627 298.37L197.314 419.778H222.325L181.109 246.935L166.94 219.216L133.737 215.215L122.716 232.362Z" fill="#101010"/>
<path d="M92.2308 99.4877L86.0784 81.0581L69.418 84.9419C68.1639 91.1142 75.6479 100.477 81.2104 107.487L92.2308 99.4877Z" fill="#F9B384"/>
<path d="M148.408 165.274L167.59 165.496L169.498 140.412L169.721 137.414L150.451 137.242L148.408 165.274Z" fill="#F9B384"/>
<path d="M149.871 145.03C156.152 149.503 164.361 146.716 169.498 140.412L169.721 137.41L150.451 137.239L149.871 145.03Z" fill="#102048"/>
<path d="M154.352 142.93C164.088 145.151 174.956 138.918 179.245 130.639L179.824 115.777L174.377 108.063L151.196 110.055C151.304 110.082 151.291 110.405 151.196 110.957C150.927 112.398 150.037 115.467 149.214 119.169C147.191 128.175 145.573 140.924 154.352 142.93Z" fill="#F9B384"/>
<path d="M170.661 155.779C170.661 155.779 156.351 167.209 143.898 150.923L120.282 229.218C134.741 239.416 153.02 242.94 174.953 240.076L170.661 155.779Z" fill="white"/>
<path d="M167.59 165.496C165.608 166.209 163.582 166.643 161.559 166.865C159.537 167.071 157.5 167.024 155.535 166.623C153.573 166.239 151.631 165.624 149.851 164.641C148.914 164.23 148.102 163.604 147.208 163.079C146.332 162.527 145.566 161.827 144.676 161.238C145.334 162.053 146.018 162.871 146.767 163.624C147.582 164.301 148.344 165.078 149.288 165.607C151.058 166.849 153.152 167.596 155.272 168.033C159.55 168.851 164.118 167.895 167.59 165.496Z" fill="#1F3C88"/>
<path d="M92.8747 96.0582C105.823 117.887 118.452 137.067 129.867 146.208C131.562 147.564 133.72 148.17 135.891 148.059C140.183 147.837 144.616 148.362 149.551 149.53C148.516 188.698 144.794 224.978 131.448 247.221C123.408 244.905 113.655 241.186 108.264 236.646C112.657 221.764 117.852 200.423 121.719 181.781L78.9281 105.485L92.8747 96.0582Z" fill="#F8B935"/>
<path d="M149.214 119.169C163.949 127.543 176.197 112.287 176.197 112.287L151.196 110.957C150.927 112.398 150.037 115.467 149.214 119.169Z" fill="#E28B6D"/>
<path d="M175.954 127.778C174.147 125.446 173.321 121.525 174.953 113.633C169.586 119.694 161.606 121.111 149.908 115.918C149.908 115.918 142.3 112.946 144.039 105.202C145.614 98.202 151.483 94.4865 156.061 100.201C166.451 97.1722 176.669 96.6303 181.25 106.061C181.25 106.061 195.848 113.633 183.398 125.92L175.954 127.778Z" fill="#102048"/>
<path d="M197.24 289.542L199.751 288.983L197.129 277.248L214.473 273.038L216.773 283.747L219.291 283.208L216.439 269.911L194.064 275.346L197.24 289.542Z" fill="#1F3C88"/>
<path d="M207.441 252.545C207.869 253.141 209.444 265.226 209.444 265.226C209.444 265.226 216.456 271.789 211.733 275.817C207.01 279.846 201.285 279.694 198.565 276.713C197.618 273.795 197.543 270.382 198.706 266.269L195.986 252.844L207.441 252.545Z" fill="#F9B384"/>
<path d="M184.406 288.734L191.327 318.001L193.987 329.302L238.931 312.448L230.19 276.013L184.406 288.734Z" fill="#ACBFEE"/>
<path d="M58.4583 94.1432L82.3229 108.585L83.3916 100.211L65.4029 89.3238L58.4583 94.1432Z" fill="#6F3428"/>
<path d="M71.3362 92.9148L77.4549 96.6169L91.9813 76.003L82.9263 70.524L71.3362 92.9148Z" fill="#D69016"/>
<path d="M81.6992 69.797L93.195 76.7536C95.7672 78.3118 99.0979 77.7498 101.016 75.4343L120.252 52.2122L90.9835 34.4994L79.2551 62.265C78.0853 65.0314 79.127 68.2388 81.6992 69.797Z" fill="#FFBA28"/>
<path d="M83.1084 55.1469L84.6928 54.4873C80.2766 43.8724 81.0452 35.2466 84.2917 33.3451C85.9806 32.3556 88.3169 33.5234 90.707 36.5457L92.0555 35.4822C87.8247 30.131 84.6086 31.1709 83.4219 31.8642C79.4709 34.1831 78.2741 43.5258 83.1084 55.1469Z" fill="#FFBA28"/>
<path d="M106.009 69.0263C118.567 67.9325 126.31 62.5511 126.536 57.9807C126.603 56.6075 126.04 53.2824 119.332 52.0136L119.012 53.6964C122.801 54.4132 124.918 55.9445 124.82 57.8932C124.631 61.6457 117.329 66.3137 105.857 67.3166L106.009 69.0263Z" fill="#FFBA28"/>
<path d="M95.3492 49.5332C96.3572 47.7899 96.3066 45.8783 95.2345 45.259C94.1625 44.6431 92.4769 45.5552 91.4689 47.2951C90.4609 49.0385 90.5115 50.9501 91.5835 51.5694C92.6556 52.1886 94.3412 51.2766 95.3492 49.5332Z" fill="white"/>
<path d="M69.4315 84.5044C69.0134 87.4761 70.8946 90.1282 74.8624 90.1282C77.3436 90.1282 80.816 86.7323 81.5475 82.7004C82.151 79.3753 80.8699 77.1978 78.5202 76.2285C76.103 75.2357 70.2203 78.9008 69.4315 84.5044Z" fill="#F9B384"/>
<path d="M145.354 30.4785L146.165 33.0466L125.267 39.6193L124.457 37.0512L145.354 30.4785Z" fill="#FFBA28"/>
<path d="M100.624 3.15277L104.433 24.6895L101.777 25.1577L97.9677 3.62098L100.624 3.15277Z" fill="#FFBA28"/>
<path d="M126.915 8.83195L129.187 10.2834L117.377 28.7016L115.106 27.2502L126.915 8.83195Z" fill="#FFBA28"/>
<path d="M182.683 204.643L186.118 256.365C166.94 255.507 154.062 249.22 154.062 249.22C152.396 218.351 156.368 183.807 168.605 152.744C199.691 164.277 208.456 202.486 213.068 259.262L194.86 261.369L182.683 204.643Z" fill="#F8B935"/>
<path d="M175.668 132.921C181.517 135.004 185.255 134.533 185.566 128.953C185.744 125.752 182.44 123.201 179.528 124.554C178.264 125.14 177.084 126.254 175.958 127.778L175.668 132.921Z" fill="#F9B384"/>
<path d="M191.327 318.001L193.99 329.299L238.931 312.448L233.005 287.775C227.476 299.194 215.781 313.356 191.327 318.001Z" fill="#102048"/>
<path d="M125.609 164.136C124.837 166.589 124.163 169.066 123.512 171.55C122.845 174.027 122.255 176.524 121.668 179.022C121.092 181.522 120.542 184.026 120.053 186.547C119.568 189.068 119.092 191.589 118.738 194.14L119.392 194.288C120.185 191.838 120.856 189.361 121.513 186.88C122.17 184.4 122.764 181.903 123.333 179.402C123.893 176.898 124.449 174.394 124.925 171.873C125.42 169.356 125.892 166.832 126.263 164.284L125.609 164.136Z" fill="#CE9723"/>
<path d="M181.773 187.23C181.685 189.717 181.702 192.198 181.743 194.678C181.763 197.158 181.867 199.635 181.972 202.113C182.086 204.59 182.228 207.063 182.434 209.537C182.643 212.011 182.858 214.481 183.206 216.948L183.877 216.914C183.984 214.427 183.964 211.947 183.934 209.466C183.9 206.986 183.802 204.509 183.681 202.032C183.546 199.555 183.411 197.081 183.192 194.607C182.993 192.134 182.771 189.663 182.444 187.197L181.773 187.23Z" fill="#CE9723"/>
<path d="M157.811 309.119C157.039 306.289 156.172 303.492 155.279 300.705C154.406 297.912 153.421 295.156 152.501 292.376C151.527 289.616 150.532 286.863 149.507 284.124C148.455 281.391 147.397 278.661 146.217 275.972L145.583 276.194C146.335 279.032 147.208 281.825 148.091 284.618C148.998 287.402 149.935 290.175 150.893 292.938C151.901 295.684 152.848 298.454 153.91 301.183C154.952 303.92 156.017 306.649 157.177 309.341L157.811 309.119Z" fill="#708CD5"/>
<path d="M179.174 129.821C179.474 129.4 179.754 128.97 180.05 128.569C180.354 128.179 180.633 127.775 180.977 127.502C181.311 127.203 181.614 127.061 181.931 127.146C182.285 127.189 182.639 127.57 183.034 127.886L183.364 127.677C183.145 127.179 182.889 126.62 182.221 126.321C181.53 126.008 180.731 126.358 180.32 126.755C179.464 127.603 179.005 128.603 178.806 129.68L179.174 129.821Z" fill="#102048"/>
<path d="M81.7835 85.3929C81.1565 83.0303 81.4801 80.8932 82.5016 80.6239C83.523 80.3547 85.0974 81.4586 85.7244 83.8245C86.3515 86.1871 87.0695 89.593 85.4547 90.3536C82.596 91.6998 82.4105 87.7554 81.7835 85.3929Z" fill="#F9B384"/>
</g>
</svg>
