<svg width="20" height="20" viewBox="0 0 20 20" fill="none" xmlns="http://www.w3.org/2000/svg">
<path d="M7.34992 14.1667L10.8333 16.0667V18.3333H4.99992C4.07492 18.3333 3.33325 17.5917 3.33325 16.6667V3.33332C3.33325 2.8913 3.50885 2.46737 3.82141 2.15481C4.13397 1.84225 4.55789 1.66666 4.99992 1.66666H5.83325V7.49999L7.91659 6.24999L9.99992 7.49999V1.66666H14.9999C15.4419 1.66666 15.8659 1.84225 16.1784 2.15481C16.491 2.46737 16.6666 2.8913 16.6666 3.33332V10.45L15.4166 9.76666L7.34992 14.1667ZM19.9999 14.1667L15.4166 11.6667L10.8333 14.1667L15.4166 16.6667L19.9999 14.1667ZM12.4999 15.9083V17.575L15.4166 19.1667L18.3333 17.575V15.9083L15.4166 17.5L12.4999 15.9083Z" fill="black"/>
</svg>
