<svg width="20" height="20" viewBox="0 0 20 20" fill="none" xmlns="http://www.w3.org/2000/svg">
<path d="M7.34992 14.1667L10.8333 16.0667V18.3334H4.99992C4.07492 18.3334 3.33325 17.5917 3.33325 16.6667V3.33341C3.33325 2.89139 3.50885 2.46746 3.82141 2.1549C4.13397 1.84234 4.55789 1.66675 4.99992 1.66675H5.83325V7.50008L7.91659 6.25008L9.99992 7.50008V1.66675H14.9999C15.4419 1.66675 15.8659 1.84234 16.1784 2.1549C16.491 2.46746 16.6666 2.89139 16.6666 3.33341V10.4501L15.4166 9.76675L7.34992 14.1667ZM19.9999 14.1667L15.4166 11.6667L10.8333 14.1667L15.4166 16.6667L19.9999 14.1667ZM12.4999 15.9084V17.5751L15.4166 19.1667L18.3333 17.5751V15.9084L15.4166 17.5001L12.4999 15.9084Z" fill="black"/>
</svg>
