<svg width="20" height="20" viewBox="0 0 20 20" fill="none" xmlns="http://www.w3.org/2000/svg">
<path d="M7.34992 14.1666L10.8333 16.0666V18.3333H4.99992C4.07492 18.3333 3.33325 17.5916 3.33325 16.6666V3.33329C3.33325 2.89127 3.50885 2.46734 3.82141 2.15478C4.13397 1.84222 4.55789 1.66663 4.99992 1.66663H5.83325V7.49996L7.91659 6.24996L9.99992 7.49996V1.66663H14.9999C15.4419 1.66663 15.8659 1.84222 16.1784 2.15478C16.491 2.46734 16.6666 2.89127 16.6666 3.33329V10.45L15.4166 9.76663L7.34992 14.1666ZM19.9999 14.1666L15.4166 11.6666L10.8333 14.1666L15.4166 16.6666L19.9999 14.1666ZM12.4999 15.9083V17.575L15.4166 19.1666L18.3333 17.575V15.9083L15.4166 17.5L12.4999 15.9083Z" fill="black"/>
</svg>
