<svg width="62" height="62" viewBox="0 0 62 62" fill="none" xmlns="http://www.w3.org/2000/svg">
<path d="M56.1585 42.4022C55.7266 45.6839 54.115 48.6962 51.6245 50.8765C49.134 53.0568 45.935 54.2559 42.625 54.25C23.3953 54.25 7.75002 38.6047 7.75002 19.375C7.74409 16.065 8.94325 12.866 11.1235 10.3755C13.3038 7.88506 16.3161 6.2734 19.5978 5.84156C20.4277 5.74023 21.2681 5.91001 21.9935 6.32554C22.719 6.74108 23.2906 7.38009 23.623 8.14719L28.738 19.5663V19.5954C28.9925 20.1826 29.0976 20.8237 29.0439 21.4614C28.9903 22.0991 28.7795 22.7136 28.4304 23.25C28.3868 23.3154 28.3408 23.3759 28.2924 23.4365L23.25 29.4137C25.064 33.0998 28.9196 36.9215 32.6542 38.7403L38.549 33.7246C38.6069 33.6759 38.6675 33.6307 38.7306 33.589C39.2666 33.2315 39.8832 33.0133 40.5247 32.9541C41.1662 32.8949 41.8123 32.9966 42.4046 33.2499L42.4361 33.2645L53.8456 38.377C54.614 38.7083 55.2546 39.2794 55.6715 40.0049C56.0884 40.7305 56.2592 41.5715 56.1585 42.4022Z" fill="#3D0EA9"/>
</svg>
