<svg width="26" height="26" viewBox="0 0 26 26" fill="none" xmlns="http://www.w3.org/2000/svg">
<path d="M2.16675 20.5833C2.16675 22.425 3.57508 23.8333 5.41675 23.8333H20.5834C22.4251 23.8333 23.8334 22.425 23.8334 20.5833V11.9167H2.16675V20.5833ZM20.5834 4.33333H18.4167V3.25C18.4167 2.6 17.9834 2.16666 17.3334 2.16666C16.6834 2.16666 16.2501 2.6 16.2501 3.25V4.33333H9.75008V3.25C9.75008 2.6 9.31675 2.16666 8.66675 2.16666C8.01675 2.16666 7.58341 2.6 7.58341 3.25V4.33333H5.41675C3.57508 4.33333 2.16675 5.74166 2.16675 7.58333V9.75H23.8334V7.58333C23.8334 5.74166 22.4251 4.33333 20.5834 4.33333Z" fill="black"/>
</svg>
