<svg width="20" height="11" viewBox="0 0 20 11" fill="none" xmlns="http://www.w3.org/2000/svg">
<path d="M19.0098 10.62C19.4998 10.13 19.4998 9.34 19.0098 8.85L10.6998 0.539999C10.6073 0.447295 10.4974 0.373748 10.3764 0.323567C10.2555 0.273385 10.1258 0.247555 9.9948 0.247555C9.86384 0.247555 9.73415 0.273385 9.61318 0.323567C9.49221 0.373748 9.38232 0.447295 9.2898 0.539999L0.979805 8.85C0.489805 9.34 0.489805 10.13 0.979805 10.62C1.4698 11.11 2.2598 11.11 2.7498 10.62L9.9998 3.38L17.2498 10.63C17.7298 11.11 18.5298 11.11 19.0098 10.62Z" fill="black"/>
</svg>
