<svg width="76" height="76" viewBox="0 0 76 76" fill="none" xmlns="http://www.w3.org/2000/svg">
<path d="M56.7498 8V0.5H19.2498V8H0.499756V34.25C0.499756 38.375 3.87476 41.75 7.99976 41.75H19.6248C20.3642 45.3513 22.144 48.6565 24.7436 51.2562C27.3432 53.8558 30.6484 55.6356 34.2498 56.375V64.55C22.9998 66.275 22.9998 75.5 22.9998 75.5H52.9998C52.9998 75.5 52.9998 66.275 41.7498 64.55V56.375C45.3511 55.6356 48.6563 53.8558 51.2559 51.2562C53.8556 48.6565 55.6353 45.3513 56.3748 41.75H67.9998C72.1248 41.75 75.4998 38.375 75.4998 34.25V8H56.7498ZM7.99976 34.25V15.5H19.2498V34.25H7.99976ZM67.9998 34.25H56.7498V15.5H67.9998V34.25Z" fill="url(#paint0_linear_26_90)"/>
<defs>
<linearGradient id="paint0_linear_26_90" x1="0.500018" y1="-7.53568" x2="75.5" y2="83.5357" gradientUnits="userSpaceOnUse">
<stop stop-color="#3D0EA9"/>
<stop offset="1" stop-color="#301573"/>
</linearGradient>
</defs>
</svg>
