<svg width="34" height="34" viewBox="0 0 34 34" fill="none" xmlns="http://www.w3.org/2000/svg">
<path d="M25.3335 15.3333H22.0002V11.9999H25.3335M18.6668 15.3333H15.3335V11.9999H18.6668M12.0002 15.3333H8.66683V11.9999H12.0002M30.3335 0.333252H3.66683C2.78277 0.333252 1.93493 0.684441 1.30981 1.30956C0.684685 1.93468 0.333496 2.78253 0.333496 3.66659V33.6666L7.00016 26.9999H30.3335C31.2176 26.9999 32.0654 26.6487 32.6905 26.0236C33.3156 25.3985 33.6668 24.5506 33.6668 23.6666V3.66659C33.6668 2.78253 33.3156 1.93468 32.6905 1.30956C32.0654 0.684441 31.2176 0.333252 30.3335 0.333252Z" fill="#B9B9B9"/>
</svg>
