<svg width="32" height="32" viewBox="0 0 32 32" fill="none" xmlns="http://www.w3.org/2000/svg">
<path d="M31.2313 24.3562C30.9527 26.4734 29.9129 28.4168 28.3061 29.8235C26.6994 31.2301 24.6355 32.0038 22.5 31.9999C10.0938 31.9999 1.41385e-05 21.9062 1.41385e-05 9.49993C-0.00381395 7.36444 0.769838 5.30059 2.17647 3.69383C3.58311 2.08707 5.52653 1.04728 7.64376 0.768678C8.17916 0.703304 8.72134 0.812837 9.18937 1.08093C9.6574 1.34901 10.0262 1.76128 10.2406 2.25618L13.5406 9.62337V9.64212C13.7048 10.0209 13.7727 10.4346 13.738 10.846C13.7034 11.2574 13.5674 11.6539 13.3422 11.9999C13.3141 12.0421 13.2844 12.0812 13.2531 12.1202L10 15.9765C11.1703 18.3546 13.6578 20.8202 16.0672 21.9937L19.8703 18.7577C19.9077 18.7263 19.9468 18.6971 19.9875 18.6702C20.3333 18.4396 20.7311 18.2988 21.145 18.2606C21.5588 18.2225 21.9757 18.288 22.3578 18.4515L22.3781 18.4609L29.7391 21.7593C30.2348 21.973 30.6481 22.3415 30.9171 22.8096C31.1861 23.2776 31.2963 23.8202 31.2313 24.3562Z" fill="#B9B9B9"/>
</svg>
