<svg width="52" height="42" viewBox="0 0 52 42" fill="none" xmlns="http://www.w3.org/2000/svg">
<path d="M46.6667 10.6666L26.0001 23.5833L5.33341 10.6666V5.49992L26.0001 18.4166L46.6667 5.49992M46.6667 0.333252H5.33341C2.46591 0.333252 0.166748 2.63242 0.166748 5.49992V36.4999C0.166748 37.8702 0.711091 39.1844 1.68003 40.1533C2.64897 41.1222 3.96313 41.6666 5.33341 41.6666H46.6667C48.037 41.6666 49.3512 41.1222 50.3201 40.1533C51.2891 39.1844 51.8334 37.8702 51.8334 36.4999V5.49992C51.8334 4.12963 51.2891 2.81547 50.3201 1.84653C49.3512 0.877595 48.037 0.333252 46.6667 0.333252Z" fill="#3D0EA9"/>
</svg>
