<svg width="71" height="74" viewBox="0 0 71 74" fill="none" xmlns="http://www.w3.org/2000/svg">
<path d="M9.25 0H49.5C51.8206 0 54.0462 0.921872 55.6872 2.56282C57.3281 4.20376 58.25 6.42936 58.25 8.75V32.5955C54.2617 31.3033 49.9939 31.1383 45.9178 32.1187C41.8416 33.0991 38.1157 35.1867 35.1512 38.1512C32.1867 41.1157 30.0991 44.8416 29.1187 48.9178C28.1383 52.9939 28.3033 57.2617 29.5955 61.25H5.75C5.75 62.1783 6.11875 63.0685 6.77513 63.7249C7.4315 64.3813 8.32174 64.75 9.25 64.75H31.062C32.0641 66.6702 33.3345 68.438 34.835 70H9.25C6.92936 70 4.70376 69.0781 3.06282 67.4372C1.42187 65.7962 0.5 63.5706 0.5 61.25V8.75C0.5 6.42936 1.42187 4.20376 3.06282 2.56282C4.70376 0.921872 6.92936 0 9.25 0ZM14.5 10.5C13.5717 10.5 12.6815 10.8687 12.0251 11.5251C11.3687 12.1815 11 13.0717 11 14V17.5C11 18.4283 11.3687 19.3185 12.0251 19.9749C12.6815 20.6313 13.5717 21 14.5 21H42.5C43.4283 21 44.3185 20.6313 44.9749 19.9749C45.6313 19.3185 46 18.4283 46 17.5V14C46 13.0717 45.6313 12.1815 44.9749 11.5251C44.3185 10.8687 43.4283 10.5 42.5 10.5H14.5ZM70.5 54.25C70.5 49.1446 68.4719 44.2483 64.8618 40.6382C61.2517 37.0281 56.3554 35 51.25 35C46.1446 35 41.2483 37.0281 37.6382 40.6382C34.0281 44.2483 32 49.1446 32 54.25C32 59.3554 34.0281 64.2517 37.6382 67.8618C41.2483 71.4719 46.1446 73.5 51.25 73.5C56.3554 73.5 61.2517 71.4719 64.8618 67.8618C68.4719 64.2517 70.5 59.3554 70.5 54.25ZM49.199 45.8395L59.02 52.2795C59.3243 52.4748 59.5739 52.7444 59.7454 53.0628C59.9168 53.3811 60.0044 53.7379 60 54.0995C60.0004 54.4634 59.914 54.8222 59.748 55.146C59.5913 55.4665 59.3521 55.7395 59.055 55.937L49.2305 62.6395C49.0596 62.7545 48.8734 62.8452 48.6775 62.909C48.2226 63.0543 47.73 63.0256 47.295 62.8285C47.0443 62.7111 46.8157 62.5513 46.6195 62.356C46.43 62.1496 46.2762 61.913 46.1645 61.656C46.0552 61.3931 45.9993 61.1112 46 60.8265V47.6735C45.9982 47.2524 46.1186 46.8397 46.3466 46.4856C46.5746 46.1315 46.9004 45.8512 47.2845 45.6785C47.5896 45.5355 47.9269 45.4748 48.2627 45.5024C48.5986 45.5301 48.9213 45.6451 49.199 45.836V45.8395Z" fill="url(#paint0_linear_26_92)"/>
<defs>
<linearGradient id="paint0_linear_26_92" x1="1.5193e-06" y1="-7.49997" x2="66.5" y2="82" gradientUnits="userSpaceOnUse">
<stop stop-color="#3D0EA9"/>
<stop offset="1" stop-color="#301573"/>
</linearGradient>
</defs>
</svg>
