<svg width="34" height="28" viewBox="0 0 34 28" fill="none" xmlns="http://www.w3.org/2000/svg">
<path d="M30.3335 7.33341L17.0002 15.6667L3.66683 7.33341V4.00008L17.0002 12.3334L30.3335 4.00008M30.3335 0.666748H3.66683C1.81683 0.666748 0.333496 2.15008 0.333496 4.00008V24.0001C0.333496 24.8841 0.684685 25.732 1.30981 26.3571C1.93493 26.9822 2.78277 27.3334 3.66683 27.3334H30.3335C31.2176 27.3334 32.0654 26.9822 32.6905 26.3571C33.3156 25.732 33.6668 24.8841 33.6668 24.0001V4.00008C33.6668 3.11603 33.3156 2.26818 32.6905 1.64306C32.0654 1.01794 31.2176 0.666748 30.3335 0.666748Z" fill="#B9B9B9"/>
</svg>
