<svg width="44" height="36" viewBox="0 0 44 36" fill="none" xmlns="http://www.w3.org/2000/svg">
<path d="M14 22H18V18C18 17.4333 18.192 16.958 18.576 16.574C18.9587 16.1913 19.4333 16 20 16H24V20L30 14L24 8V12H20C18.3333 12 16.9167 12.5833 15.75 13.75C14.5833 14.9167 14 16.3333 14 18V22ZM2 36C1.43333 36 0.958667 35.808 0.576 35.424C0.192 35.0413 0 34.5667 0 34C0 33.4333 0.192 32.9587 0.576 32.576C0.958667 32.192 1.43333 32 2 32H42C42.5667 32 43.0413 32.192 43.424 32.576C43.808 32.9587 44 33.4333 44 34C44 34.5667 43.808 35.0413 43.424 35.424C43.0413 35.808 42.5667 36 42 36H2ZM6 30C4.9 30 3.95867 29.6087 3.176 28.826C2.392 28.042 2 27.1 2 26V4C2 2.9 2.392 1.958 3.176 1.174C3.95867 0.391333 4.9 0 6 0H38C39.1 0 40.042 0.391333 40.826 1.174C41.6087 1.958 42 2.9 42 4V26C42 27.1 41.6087 28.042 40.826 28.826C40.042 29.6087 39.1 30 38 30H6Z" fill="#3D0EA9"/>
</svg>
